<svg width="31" height="30" viewBox="0 0 31 30" fill="none" xmlns="http://www.w3.org/2000/svg">
<path d="M22.5307 15.5897C21.6165 15.5899 20.7229 15.866 19.9628 16.3832C19.2028 16.9003 18.6105 17.6353 18.2608 18.495C17.9111 19.3548 17.8197 20.3008 17.9982 21.2135C18.1767 22.1261 18.617 22.9644 19.2635 23.6223C19.9101 24.2802 20.7337 24.7282 21.6304 24.9097C22.527 25.0911 23.4564 24.9979 24.301 24.6417C25.1456 24.2856 25.8674 23.6825 26.3753 22.9088C26.8832 22.135 27.1543 21.2254 27.1543 20.2948C27.1556 19.6765 27.0369 19.064 26.805 18.4924C26.5731 17.9209 26.2325 17.4016 25.8029 16.9644C25.3733 16.5272 24.8631 16.1807 24.3015 15.9448C23.74 15.7089 23.1382 15.5882 22.5307 15.5897ZM10.5268 15.5897C9.61257 15.5897 8.71886 15.8656 7.95869 16.3826C7.19852 16.8997 6.60603 17.6345 6.25617 18.4943C5.9063 19.354 5.81476 20.3001 5.99312 21.2128C6.17148 22.1255 6.61173 22.9639 7.25821 23.6219C7.90468 24.2799 8.72833 24.728 9.62501 24.9096C10.5217 25.0911 11.4511 24.998 12.2958 24.6418C13.1404 24.2857 13.8624 23.6826 14.3703 22.9089C14.8782 22.1351 15.1493 21.2254 15.1493 20.2948C15.1506 19.6766 15.032 19.0641 14.8001 18.4927C14.5683 17.9212 14.2278 17.402 13.7983 16.9648C13.3688 16.5277 12.8587 16.1811 12.2973 15.9451C11.7359 15.7092 11.1342 15.5884 10.5268 15.5897ZM21.1601 9.70517C21.1603 10.636 20.8893 11.546 20.3814 12.3201C19.8734 13.0942 19.1514 13.6976 18.3066 14.054C17.4617 14.4104 16.5321 14.5037 15.6351 14.3223C14.7381 14.1408 13.9142 13.6927 13.2674 13.0345C12.6207 12.3764 12.1802 11.5378 12.0017 10.6248C11.8232 9.71189 11.9147 8.76556 12.2647 7.90553C12.6146 7.04551 13.2072 6.31042 13.9676 5.79324C14.7279 5.27606 15.6219 5.00001 16.5364 5.00001C17.1439 4.99854 17.7457 5.11923 18.3073 5.35515C18.8688 5.59107 19.379 5.93757 19.8087 6.37477C20.2383 6.81196 20.5788 7.33123 20.8107 7.90276C21.0426 8.47428 21.1614 9.08681 21.1601 9.70517Z" fill="url(#paint0_radial_1040_93697)"/>
<defs>
<radialGradient id="paint0_radial_1040_93697" cx="0" cy="0" r="1" gradientUnits="userSpaceOnUse" gradientTransform="translate(16.5473 15.6779) scale(14.0861 13.2536)">
<stop stop-color="#FFB900"/>
<stop offset="0.6" stop-color="#F95D8F"/>
<stop offset="1" stop-color="#F95353"/>
</radialGradient>
</defs>
</svg>
