<svg width="31" height="30" viewBox="0 0 31 30" fill="none" xmlns="http://www.w3.org/2000/svg">
<path d="M6.18525 22.5508C5.63032 22.552 5.08502 22.4059 4.60504 22.1274C4.12507 21.8489 3.72763 21.4479 3.45333 20.9655C3.18323 20.4865 3.04853 19.9431 3.06365 19.3934C3.07876 18.8437 3.24314 18.3085 3.53915 17.845L9.16509 9.01042C9.45303 8.53561 9.86185 8.14574 10.3498 7.88063C10.8377 7.61551 11.3872 7.48466 11.9423 7.50143C12.4969 7.51472 13.038 7.67513 13.5103 7.96624C13.9826 8.25735 14.369 8.66871 14.6301 9.15822C15.1546 10.1499 15.089 11.343 14.4609 12.2739L8.8385 21.1086C8.55338 21.5528 8.16072 21.918 7.69691 22.1701C7.2331 22.4222 6.71315 22.5532 6.18525 22.5508Z" fill="#F62B54"/>
<path d="M15.8358 22.5504C14.7011 22.5504 13.657 21.9437 13.1087 20.9687C12.8392 20.491 12.7048 19.949 12.7199 19.4007C12.735 18.8525 12.8991 18.3187 13.1945 17.8566L18.8097 9.04222C19.0934 8.56073 19.5008 8.16391 19.9895 7.89292C20.4783 7.62192 21.0306 7.48662 21.5893 7.50104C22.7335 7.52607 23.7705 8.16614 24.295 9.16737C24.8159 10.1686 24.7396 11.3689 24.0923 12.2974L18.4783 21.1117C18.1941 21.5541 17.803 21.9178 17.3412 22.1693C16.8794 22.4207 16.3617 22.5518 15.8358 22.5504Z" fill="#FFCC00"/>
<path d="M25.2694 22.6244C26.8691 22.6244 28.1659 21.3548 28.1659 19.7887C28.1659 18.2227 26.8691 16.9531 25.2694 16.9531C23.6698 16.9531 22.373 18.2227 22.373 19.7887C22.373 21.3548 23.6698 22.6244 25.2694 22.6244Z" fill="#00CA72"/>
</svg>
