<svg width="31" height="30" viewBox="0 0 31 30" fill="none" xmlns="http://www.w3.org/2000/svg">
<path fill-rule="evenodd" clip-rule="evenodd" d="M5.6543 7.43589C5.6543 6.09551 6.74881 5 8.08797 5V5.01289H22.7158C24.055 5.01289 25.1495 6.10839 25.1495 7.44878V22.0641C25.1495 23.4045 24.055 24.5 22.7158 24.5H8.08797C6.74881 24.5 5.6543 23.4045 5.6543 22.0641V18.7891C6.46917 19.2753 8.44092 20.4265 8.92507 20.707C9.22123 20.8617 9.50452 20.8617 9.7878 20.707L17.6168 16.1446C17.7842 16.0415 17.797 15.745 17.6039 15.6419C17.4918 15.5821 17.3277 15.4876 17.182 15.4036C17.0766 15.3429 16.9809 15.2877 16.9214 15.2553C16.7283 15.1522 16.5094 15.1522 16.3162 15.2682C16.2962 15.2796 15.9721 15.4684 15.4775 15.7564C13.7447 16.7654 9.91947 18.9929 9.74917 19.0831C9.50452 19.2249 9.1826 19.2249 8.93795 19.0831L5.6543 17.1521V15.4768C6.46917 15.963 8.44092 17.1142 8.92507 17.3947C9.22123 17.5494 9.50452 17.5494 9.7878 17.3819L17.6168 12.8194C17.7842 12.7163 17.797 12.4199 17.6039 12.3168C17.4918 12.2569 17.3277 12.1624 17.182 12.0784C17.0766 12.0177 16.9809 11.9626 16.9214 11.9301C16.7283 11.827 16.5094 11.827 16.3162 11.943C16.2962 11.9544 15.9723 12.1431 15.4779 12.431C13.7452 13.4399 9.91948 15.6677 9.74917 15.7579C9.50452 15.8997 9.1826 15.8997 8.93795 15.7579L5.6543 13.8269V12.3578C6.46917 12.844 8.44092 13.9952 8.92507 14.2758C9.22123 14.4304 9.50452 14.4304 9.7878 14.2629L17.6168 9.70044C17.7842 9.59733 17.797 9.3009 17.6039 9.19779C17.4918 9.13796 17.3277 9.0434 17.182 8.95946C17.0766 8.89875 16.9809 8.8436 16.9214 8.81114C16.7283 8.70804 16.5094 8.70803 16.3162 8.82403C16.2962 8.83547 15.9723 9.02412 15.4779 9.31201C13.7452 10.3209 9.91948 12.5487 9.74917 12.639C9.50452 12.7807 9.1826 12.7807 8.93795 12.639L5.6543 10.7079V7.43589Z" fill="#E44332"/>
</svg>
