<svg width="31" height="30" viewBox="0 0 31 30" fill="none" xmlns="http://www.w3.org/2000/svg">
<path fill-rule="evenodd" clip-rule="evenodd" d="M22.6248 5.48828H7.98897C6.64239 5.48828 5.55078 6.57989 5.55078 7.92647V22.5623C5.55078 23.9088 6.64239 25.0005 7.98897 25.0005H22.6248C23.9713 25.0005 25.063 23.9088 25.063 22.5623V7.92647C25.063 6.57989 23.9713 5.48828 22.6248 5.48828ZM21.3565 8.02246H17.7461C17.1 8.02246 16.5762 8.54628 16.5762 9.19243V15.3884C16.5762 16.0345 17.1 16.5583 17.7461 16.5583H21.3565C22.0027 16.5583 22.5265 16.0345 22.5265 15.3884V9.19243C22.5265 8.54628 22.0027 8.02246 21.3565 8.02246ZM9.25737 8.02246H12.8678C13.5139 8.02246 14.0377 8.54628 14.0377 9.19243V20.267C14.0377 20.9131 13.5139 21.4369 12.8678 21.4369H9.25737C8.61122 21.4369 8.0874 20.9131 8.0874 20.267V9.19243C8.0874 8.54628 8.61122 8.02246 9.25737 8.02246Z" fill="url(#paint0_linear_1040_93684)"/>
<defs>
<linearGradient id="paint0_linear_1040_93684" x1="15.4391" y1="5.37664" x2="15.4391" y2="24.9488" gradientUnits="userSpaceOnUse">
<stop stop-color="#0079BF"/>
<stop offset="1" stop-color="#0079BF"/>
</linearGradient>
</defs>
</svg>
